HIERARCHY
ROOT Hips
{
	OFFSET	0.00	0.00	0.00
	CHANNELS 6 Xposition Yposition Zposition Zrotation Xrotation Yrotation
	JOINT LeftUpLeg
	{
		OFFSET	 0.126116	-0.065224	 0.014019
		CHANNELS 3 Zrotation Xrotation Yrotation
		JOINT LeftLeg
		{
			OFFSET	 0.000000	 0.569914	 0.000000
			CHANNELS 3 Zrotation Xrotation Yrotation
			JOINT LeftFoot
			{
				OFFSET	 0.000000	 0.544423	 0.000000
				CHANNELS 3 Zrotation Xrotation Yrotation
				JOINT LeftToeBase
				{
					OFFSET	 0.000000	 0.207117	 0.000000
					CHANNELS 3 Zrotation Xrotation Yrotation
					End Site
					{
						OFFSET	 0.000000	 0.207117	 0.000000
					}
				}
			}
		}
	}
	JOINT RightUpLeg
	{
		OFFSET	-0.124023	-0.065224	 0.008373
		CHANNELS 3 Zrotation Xrotation Yrotation
		JOINT RightLeg
		{
			OFFSET	 0.000000	 0.570047	 0.000000
			CHANNELS 3 Zrotation Xrotation Yrotation
			JOINT RightFoot
			{
				OFFSET	 0.000000	 0.544354	 0.000000
				CHANNELS 3 Zrotation Xrotation Yrotation
				JOINT RightToeBase
				{
					OFFSET	 0.000000	 0.207540	 0.000000
					CHANNELS 3 Zrotation Xrotation Yrotation
					End Site
					{
						OFFSET	 0.000000	 0.207540	 0.000000
					}
				}
			}
		}
	}
	JOINT Spine
	{
		OFFSET	 0.000184	 0.117403	 0.007763
		CHANNELS 3 Zrotation Xrotation Yrotation
		JOINT Spine1
		{
			OFFSET	 0.000000	 0.137269	 0.000000
			CHANNELS 3 Zrotation Xrotation Yrotation
			JOINT Spine2
			{
				OFFSET	 0.000000	 0.156879	 0.000000
				CHANNELS 3 Zrotation Xrotation Yrotation
				JOINT LeftShoulder
				{
					OFFSET	 0.080501	 0.160143	 0.002496
					CHANNELS 3 Zrotation Xrotation Yrotation
					JOINT LeftArm
					{
						OFFSET	 0.000000	 0.164363	 0.000000
						CHANNELS 3 Zrotation Xrotation Yrotation
						JOINT LeftForeArm
						{
							OFFSET	 0.000000	 0.364576	 0.000000
							CHANNELS 3 Zrotation Xrotation Yrotation
							JOINT LeftHand
							{
								OFFSET	 0.000000	 0.360812	 0.000000
								CHANNELS 3 Zrotation Xrotation Yrotation
								JOINT LeftHandIndex1
								{
									OFFSET	 0.000000	 0.086006	 0.000000
									CHANNELS 3 Zrotation Xrotation Yrotation
									JOINT LeftHandIndex2
									{
										OFFSET	 0.000000	 0.047237	 0.000000
										CHANNELS 3 Zrotation Xrotation Yrotation
										JOINT LeftHandIndex3
										{
											OFFSET	-0.004284	 0.038165	 0.000551
											CHANNELS 3 Zrotation Xrotation Yrotation
											End Site
											{
												OFFSET	-0.004284	 0.038165	 0.000551
											}
										}
									}
								}
							}
						}
					}
				}
				JOINT Neck
				{
					OFFSET	 0.000000	 0.176489	 0.000000
					CHANNELS 3 Zrotation Xrotation Yrotation
					JOINT Head
					{
						OFFSET	 0.000000	 0.077941	 0.001747
						CHANNELS 3 Zrotation Xrotation Yrotation
						End Site
						{
							OFFSET	 0.000000	 0.077941	 0.001747
						}
					}
				}
				JOINT RightShoulder
				{
					OFFSET	-0.080363	 0.159706	-0.000306
					CHANNELS 3 Zrotation Xrotation Yrotation
					JOINT RightArm
					{
						OFFSET	 0.000000	 0.164196	 0.000000
						CHANNELS 3 Zrotation Xrotation Yrotation
						JOINT RightForeArm
						{
							OFFSET	 0.000000	 0.365611	 0.000000
							CHANNELS 3 Zrotation Xrotation Yrotation
							JOINT RightHand
							{
								OFFSET	 0.000000	 0.360648	 0.000000
								CHANNELS 3 Zrotation Xrotation Yrotation
								JOINT RightHandIndex1
								{
									OFFSET	 0.000000	 0.069977	 0.000000
									CHANNELS 3 Zrotation Xrotation Yrotation
									JOINT RightHandIndex2
									{
										OFFSET	 0.000000	 0.052305	 0.000000
										CHANNELS 3 Zrotation Xrotation Yrotation
										JOINT RightHandIndex3
										{
											OFFSET	 0.009002	 0.042196	 0.000782
											CHANNELS 3 Zrotation Xrotation Yrotation
											End Site
											{
												OFFSET	 0.009002	 0.042196	 0.000782
											}
										}
									}
								}
							}
						}
					}
				}
			}
		}
	}
}
MOTION
Frames:    5
Frame Time: 0.03333334
 0.332316	 0.825382	-0.148876	 37.127720	-36.352260	-107.981700	 5.107973	 69.737660	-177.510600	 48.096270	-82.938280	 49.242810	 9.496536	 47.796890	-29.356600	 2.737821	 50.977710	-6.596840	-3.521784	 70.692670	 149.622600	-162.847300	-73.710110	-161.375100	-96.168440	 72.894440	 127.993200	-1.652395	 33.399920	 2.854247	 3.534549	 16.235740	-3.203672	-16.192360	 16.296850	 5.354687	 5.932051	 20.985420	 14.691980	-110.314000	 10.307970	 93.763250	 31.981560	 45.011620	-17.876770	 16.621650	-0.878746	 0.356314	-5.065874	-10.610010	 13.311560	-5.910800	 2.890833	-8.103856	-6.631289	 5.745201	 1.556059	 4.963066	-4.014628	-0.346955	 6.493685	-5.910851	 2.711946	 8.885717	-1.068094	-42.928050	 79.462770	 12.370730	-83.189480	-28.754590	 33.586070	 61.039260	-67.389600	-4.882525	 10.874090	 24.849540	 27.009050	 15.266950	-0.584538	 7.446311	-0.608253	 14.759240	 23.032160	-6.934574	-8.239867	-2.131385	 0.447455
 0.344250	 0.838184	-0.161531	 34.526320	-33.584470	-107.257600	 0.005717	 75.657920	 177.938900	 100.514400	-84.642880	 103.470200	 25.059280	 45.520280	-40.009860	 2.584732	 51.467890	-8.339490	 2.907995	 74.496690	 146.282500	-162.407100	-74.085050	-161.194100	-97.346060	 71.111430	 127.935600	-1.644715	 33.286260	 2.846721	 3.351790	 15.658360	-3.143948	-16.509330	 13.445790	 5.207326	 6.680912	 20.595900	 15.718520	-109.966800	 8.362988	 92.933110	 26.050260	 49.670850	-12.162490	 18.267810	-0.943658	 0.342471	-6.860237	-7.157856	 12.574940	-5.437274	 4.107325	-8.010053	-6.679430	 6.071325	 1.618567	 4.963066	-4.014628	-0.346955	 6.326145	-6.109697	 3.193716	 8.451697	 1.104804	-42.082550	 81.770230	 11.891950	-86.359730	-35.075550	 30.012580	 57.409400	-56.900100	-4.432643	 10.779710	 10.687520	 32.852050	 18.758440	-2.817673	 12.387880	-1.124853	 14.458770	 21.866270	-6.514299	-8.239867	-2.131385	 0.447455
 0.355817	 0.860884	-0.167604	 31.355290	-30.388750	-105.142400	 6.116905	 84.911530	 163.142000	 120.198100	-83.910930	 124.443800	 37.634950	 40.960480	-48.939230	 2.172666	 50.809260	-8.611779	 25.563390	 78.483280	 126.773400	-160.391000	-75.597370	-159.396500	-97.579100	 70.190560	 127.170200	-1.641275	 33.235960	 2.843357	 3.269934	 15.403630	-2.969861	-16.293660	 10.541410	 4.864816	 8.058373	 20.515940	 15.921530	-109.054400	 7.006045	 92.336810	 19.241330	 54.201080	-5.939055	 22.217720	-1.126796	 0.440695	-11.342520	-2.577793	 13.393210	-4.918166	 4.403788	-8.013005	-6.728961	 6.401546	 1.682306	 4.963066	-4.014628	-0.346955	 6.847258	-5.171509	 3.371832	 7.412382	 2.773030	-41.546580	 83.604780	 11.054570	-88.422110	-37.370870	 35.465110	 55.680460	-65.371320	-4.808282	 9.387916	 10.626990	 35.862910	 17.325280	-3.872909	 15.107570	-1.407224	 14.303120	 21.312690	-6.312942	-8.239867	-2.131385	 0.447455
 0.360304	 0.886801	-0.166893	 28.087670	-27.070840	-101.535800	 161.608800	 84.019970	 0.009001	 119.552000	-83.949940	 124.452800	 45.437870	 36.910110	-54.387430	 1.574239	 49.040310	-7.444448	 68.705550	 78.145200	 86.387140	-156.944600	-77.588750	-156.088300	-98.307600	 69.965600	 127.602900	-1.642270	 33.252180	 2.844345	 3.426668	 15.215530	-2.960837	-15.318990	 8.499474	 4.194235	 9.833221	 20.419980	 15.335100	-107.620800	 6.322215	 92.014390	 14.364790	 58.448600	-1.481583	 24.770680	-1.252928	 0.586928	-16.245640	 2.598615	 15.217430	-4.388487	 3.762474	-8.100093	-6.776526	 6.713672	 1.742977	 4.963066	-4.014628	-0.346955	 8.021431	-3.161866	 3.204501	 5.863858	 3.806831	-41.374250	 84.859570	 9.994274	-89.248060	-41.429120	 40.082860	 58.592710	-70.704850	-4.991451	 8.392829	 13.872840	 37.168080	 9.542968	-3.691107	 15.435580	-1.582192	 14.293470	 21.407780	-6.335667	-8.239867	-2.131385	 0.447455
 0.368177	 0.920012	-0.164809	 24.993030	-23.744670	-97.454690	 169.612400	 70.806210	-14.443760	 124.408800	-83.623540	 129.948600	 52.821680	 35.599290	-61.244230	 1.037337	 47.220470	-6.317838	 98.321870	 72.884410	 59.780810	-148.326800	-80.678820	-147.666700	-96.406720	 69.511280	 125.314800	-1.643289	 33.268780	 2.845358	 3.747700	 14.862800	-2.609992	-15.837850	 3.754829	 3.374450	 12.423830	 21.509560	 14.685470	-106.158300	 5.613714	 91.702510	 7.603513	 62.572960	 4.902341	 26.966330	-1.361421	 0.732660	-22.077610	 6.323384	 17.790340	-3.847550	 3.105058	-8.183043	-6.825600	 7.033154	 1.805400	 4.963066	-4.014628	-0.346955	 9.229297	-1.106259	 2.990545	 4.268167	 4.861080	-41.206170	 86.124690	 8.890129	-90.066890	-46.651190	 43.509450	 62.187790	-74.758300	-5.101901	 7.496213	 17.548540	 37.757770	 3.139470	-3.503609	 15.770820	-1.762725	 14.283630	 21.505120	-6.358929	-8.239867	-2.131385	 0.447455
